<svg id="Layer_1" data-name="Layer 1" xmlns="http://www.w3.org/2000/svg" viewBox="0 0 512 512"><defs><style>.cls-1{fill:#6d4135;}</style></defs><title>heart-outline</title><path class="cls-1" d="M256,490.67A21.32,21.32,0,0,1,240.51,484L43.08,275.56A148.45,148.45,0,0,1,0,170.67C0,88.32,67,21.33,149.33,21.33A149,149,0,0,1,256,66.19,149,149,0,0,1,362.67,21.33C445,21.33,512,88.32,512,170.67a148.45,148.45,0,0,1-43.25,105.07L271.49,484A21.32,21.32,0,0,1,256,490.67ZM149.33,64A106.64,106.64,0,0,0,73.57,245.72l.33.34L256,438.31,438.1,246.06A106.65,106.65,0,1,0,273.77,111.77a21.33,21.33,0,0,1-35.54,0A106.51,106.51,0,0,0,149.33,64Z"/></svg>