<svg id="Layer_1" data-name="Layer 1" xmlns="http://www.w3.org/2000/svg" xmlns:xlink="http://www.w3.org/1999/xlink" viewBox="0 0 512 512"><defs><linearGradient id="linear-gradient" x1="256" y1="603.85" x2="256" y2="-91.85" gradientUnits="userSpaceOnUse"><stop offset="0" stop-color="#231f20"/><stop offset="1" stop-color="#58595b"/></linearGradient></defs><title>lock</title><path d="M414,233.81H391.41v-92.6C391.41,63.36,330.7,0,256,0S120.56,63.36,120.56,141.21v92.6H98A25.55,25.55,0,0,0,72.4,259.19V486.6A25.56,25.56,0,0,0,98,512H414a25.56,25.56,0,0,0,25.58-25.4V259.19A25.55,25.55,0,0,0,414,233.81Zm-132.29,202H232.56l10.37-76.62c-7.55-4.78-12.84-12.75-12.84-22.26a27.08,27.08,0,0,1,54.15,0c0,9.51-5.29,17.48-12.84,22.26Zm50.66-202H179.61v-92.6c0-45.61,34.25-82.69,76.37-82.69s76.41,37.07,76.41,82.69Z" fill-rule="evenodd" fill="url(#linear-gradient)"/></svg>